<?xml version="1.0" encoding="utf-8"?>
<!-- Generator: Adobe Illustrator 21.0.0, SVG Export Plug-In . SVG Version: 6.00 Build 0)  -->
<svg version="1.1" id="Layer_1" xmlns="http://www.w3.org/2000/svg" xmlns:xlink="http://www.w3.org/1999/xlink" x="0px" y="0px"
	 viewBox="0 0 800 600" enable-background="new 0 0 800 600" xml:space="preserve">
<g>
	<ellipse fill="#2AB34B" cx="357.19" cy="313.19" rx="231.62" ry="233.6"/>
	<path opacity="0.2" fill="#010101" d="M790.63,109.5c-7.12-13.81-32.29-23.28-74.79-28.14c-23.29-2.67-66.28-5.07-92.57,8.72
		C503.12,153.1,405.21,252.1,322.25,343.77l-46.11-83.28c-3.23-5.83-10.79-19.49-77.02-24.96c-23.33-1.93-65.32-3.53-84.72,7.4
		c-13.83,7.79-18.51,23.13-11.12,36.47l115.35,208.36c5,9.03,16.02,18.11,62.39,23.41c6.43,0.74,15.03,1.58,24.63,2.17
		c29.99,1.84,69.67,1.13,82.79-13.52c14.18-15.83,28.6-32.13,42.53-47.9c103.49-117.06,210.5-238.1,348.13-310.3
		C793.62,134.02,795.89,119.7,790.63,109.5z"/>
	<path fill="#FFFFFF" d="M766.15,77.19c-7.94-13.35-33.62-21.26-76.34-23.52c-23.4-1.24-66.46-1.01-91.87,14.36
		C481.8,138.29,390.02,243.09,312.72,339.66l-51.03-80.31c-3.57-5.62-11.94-18.79-78.38-20.21c-23.4-0.5-65.41,0.47-84.12,12.57
		c-13.34,8.62-17.08,24.21-8.91,37.08l127.66,200.92c5.53,8.71,17.08,17.1,63.69,19.55c6.46,0.34,15.1,0.66,24.72,0.66
		c30.05,0,69.61-3.13,81.82-18.55c13.21-16.67,26.61-33.82,39.58-50.41c96.26-123.17,195.8-250.53,328.84-331.01
		C770.62,101.48,772.02,87.05,766.15,77.19z"/>
	<path fill="#2AB34B" d="M607.95,84.87c-118.94,71.95-210.66,179.2-297,288.4c-21.88-34.44-43.76-68.88-65.65-103.32
		c-9.71-15.28-154.83-17.25-138.63,8.26c42.55,66.97,85.11,133.95,127.66,200.92c9.22,14.51,126.73,15.01,138.63,0
		c110.51-139.5,219.1-292.54,373.61-386C771.88,77.82,647.72,60.81,607.95,84.87z"/>
</g>
</svg>
